<svg width="386" height="820" viewBox="0 0 386 820" fill="none" xmlns="http://www.w3.org/2000/svg">
<rect x="0.7" y="0.7" width="974.6" height="818.6" fill="url(#paint0_linear_61429:5610)" stroke="black" stroke-width="1.4"/>
<mask id="mask0_61429:5610" style="mask-type:alpha" maskUnits="userSpaceOnUse" x="0" y="0" width="976" height="820">
<rect x="0.5" y="0.5" width="975" height="819" fill="url(#paint1_linear_61429:5610)" stroke="black"/>
</mask>
<g mask="url(#mask0_61429:5610)">
<g style="mix-blend-mode:luminosity" opacity="0.4">
<path d="M60.9764 409.525L0.500206 374.697V305.051L60.9764 270.223L121.453 305.051V374.697L60.9764 409.525Z" fill="url(#paint2_linear_61429:5610)" stroke="black"/>
<path d="M60.9764 339.297L0.500206 304.469V234.822L60.9764 199.994L121.453 234.822V304.469L60.9764 339.297Z" fill="url(#paint3_linear_61429:5610)" stroke="black"/>
<path d="M121.952 304.199L182.429 269.371V199.724L121.952 164.897L61.4761 199.724V269.371L121.952 304.199Z" fill="url(#paint4_linear_61429:5610)" stroke="black"/>
<path d="M182.929 270.222L122.452 305.05V374.697L182.929 409.525L243.405 374.697V305.05L182.929 270.222Z" fill="url(#paint5_linear_61429:5610)" stroke="black"/>
<path d="M182.929 339.297L243.405 304.469V234.822L182.929 199.994L122.453 234.822V304.469L182.929 339.297Z" fill="url(#paint6_linear_61429:5610)" stroke="black"/>
<path d="M121.952 305.353L182.429 340.181V409.828L121.952 444.656L61.4761 409.828L61.4761 340.181L121.952 305.353Z" fill="url(#paint7_linear_61429:5610)" stroke="black"/>
</g>
<g style="mix-blend-mode:luminosity" opacity="0.4">
<path d="M304.976 409.525L244.5 374.697V305.05L304.976 270.223L365.452 305.05V374.697L304.976 409.525Z" fill="url(#paint8_linear_61429:5610)" stroke="black"/>
<path d="M304.976 339.297L244.5 304.469V234.822L304.976 199.994L365.452 234.822V304.469L304.976 339.297Z" fill="url(#paint9_linear_61429:5610)" stroke="black"/>
<path d="M365.952 304.199L426.428 269.371V199.724L365.952 164.897L305.476 199.724V269.371L365.952 304.199Z" fill="url(#paint10_linear_61429:5610)" stroke="black"/>
<path d="M426.929 270.222L366.452 305.05V374.697L426.929 409.525L487.405 374.697V305.05L426.929 270.222Z" fill="url(#paint11_linear_61429:5610)" stroke="black"/>
<path d="M426.928 339.297L487.405 304.469V234.822L426.928 199.994L366.452 234.822V304.469L426.928 339.297Z" fill="url(#paint12_linear_61429:5610)" stroke="black"/>
<path d="M365.952 305.353L426.428 340.181V409.828L365.952 444.656L305.476 409.828V340.181L365.952 305.353Z" fill="url(#paint13_linear_61429:5610)" stroke="black"/>
</g>
<g style="mix-blend-mode:luminosity" opacity="0.4">
<path d="M60.9764 619.97L0.500206 585.142V515.495L60.9764 480.667L121.453 515.495V585.142L60.9764 619.97Z" fill="url(#paint14_linear_61429:5610)" stroke="black"/>
<path d="M60.9764 549.741L0.500206 514.913V445.267L60.9764 410.439L121.453 445.267V514.913L60.9764 549.741Z" fill="url(#paint15_linear_61429:5610)" stroke="black"/>
<path d="M121.952 514.644L182.429 479.816V410.169L121.952 375.341L61.4761 410.169V479.816L121.952 514.644Z" fill="url(#paint16_linear_61429:5610)" stroke="black"/>
<path d="M182.929 480.667L122.452 515.495V585.142L182.929 619.97L243.405 585.142V515.495L182.929 480.667Z" fill="url(#paint17_linear_61429:5610)" stroke="black"/>
<path d="M182.929 549.741L243.405 514.913V445.267L182.929 410.439L122.453 445.267V514.913L182.929 549.741Z" fill="url(#paint18_linear_61429:5610)" stroke="black"/>
<path d="M121.952 515.798L182.429 550.626V620.273L121.952 655.1L61.4761 620.273L61.4761 550.626L121.952 515.798Z" fill="url(#paint19_linear_61429:5610)" stroke="black"/>
</g>
<g style="mix-blend-mode:luminosity" opacity="0.4">
<path d="M304.976 619.97L244.5 585.142V515.495L304.976 480.667L365.452 515.495V585.142L304.976 619.97Z" fill="url(#paint20_linear_61429:5610)" stroke="black"/>
<path d="M304.976 549.741L244.5 514.914V445.267L304.976 410.439L365.452 445.267V514.914L304.976 549.741Z" fill="url(#paint21_linear_61429:5610)" stroke="black"/>
<path d="M365.952 514.644L426.428 479.816V410.169L365.952 375.341L305.476 410.169V479.816L365.952 514.644Z" fill="url(#paint22_linear_61429:5610)" stroke="black"/>
<path d="M426.929 480.667L366.452 515.495V585.142L426.929 619.97L487.405 585.142V515.495L426.929 480.667Z" fill="url(#paint23_linear_61429:5610)" stroke="black"/>
<path d="M426.928 549.741L487.405 514.914V445.267L426.928 410.439L366.452 445.267V514.914L426.928 549.741Z" fill="url(#paint24_linear_61429:5610)" stroke="black"/>
<path d="M365.952 515.798L426.428 550.626V620.273L365.952 655.101L305.476 620.273V550.626L365.952 515.798Z" fill="url(#paint25_linear_61429:5610)" stroke="black"/>
</g>
<g style="mix-blend-mode:luminosity" opacity="0.4">
<path d="M60.9764 830.414L0.500206 795.586V725.94L60.9764 691.112L121.453 725.94V795.586L60.9764 830.414Z" fill="url(#paint26_linear_61429:5610)" stroke="black"/>
<path d="M60.9764 760.186L0.500206 725.358V655.711L60.9764 620.883L121.453 655.711V725.358L60.9764 760.186Z" fill="url(#paint27_linear_61429:5610)" stroke="black"/>
<path d="M121.952 725.088L182.429 690.261V620.614L121.952 585.786L61.4761 620.614V690.261L121.952 725.088Z" fill="url(#paint28_linear_61429:5610)" stroke="black"/>
<path d="M182.929 691.112L122.452 725.94V795.586L182.929 830.414L243.405 795.586V725.94L182.929 691.112Z" fill="url(#paint29_linear_61429:5610)" stroke="black"/>
<path d="M182.929 760.186L243.405 725.358V655.711L182.929 620.883L122.453 655.711V725.358L182.929 760.186Z" fill="url(#paint30_linear_61429:5610)" stroke="black"/>
<path d="M121.952 726.242L182.429 761.07V830.717L121.952 865.545L61.4761 830.717L61.4761 761.07L121.952 726.242Z" fill="url(#paint31_linear_61429:5610)" stroke="black"/>
</g>
<g style="mix-blend-mode:luminosity" opacity="0.4">
<path d="M304.976 830.414L244.5 795.587V725.94L304.976 691.112L365.452 725.94V795.587L304.976 830.414Z" fill="url(#paint32_linear_61429:5610)" stroke="black"/>
<path d="M304.976 760.186L244.5 725.358V655.711L304.976 620.883L365.452 655.711V725.358L304.976 760.186Z" fill="url(#paint33_linear_61429:5610)" stroke="black"/>
<path d="M365.952 725.089L426.428 690.261V620.614L365.952 585.786L305.476 620.614V690.261L365.952 725.089Z" fill="url(#paint34_linear_61429:5610)" stroke="black"/>
<path d="M426.929 691.112L366.452 725.94V795.586L426.929 830.414L487.405 795.586V725.94L426.929 691.112Z" fill="url(#paint35_linear_61429:5610)" stroke="black"/>
<path d="M426.928 760.186L487.405 725.358V655.711L426.928 620.883L366.452 655.711V725.358L426.928 760.186Z" fill="url(#paint36_linear_61429:5610)" stroke="black"/>
<path d="M365.952 726.243L426.428 761.07V830.717L365.952 865.545L305.476 830.717V761.07L365.952 726.243Z" fill="url(#paint37_linear_61429:5610)" stroke="black"/>
</g>
<g style="mix-blend-mode:luminosity" opacity="0.4">
<path d="M60.9764 199.081L0.500206 164.253V94.606L60.9764 59.7781L121.453 94.606V164.253L60.9764 199.081Z" fill="url(#paint38_linear_61429:5610)" stroke="black"/>
<path d="M60.9764 128.852L0.500206 94.0244V24.3776L60.9764 -10.4503L121.453 24.3776V94.0244L60.9764 128.852Z" fill="url(#paint39_linear_61429:5610)" stroke="black"/>
<path d="M121.952 93.7547L182.429 58.9268V-10.7201L121.952 -45.548L61.4761 -10.7201V58.9268L121.952 93.7547Z" fill="url(#paint40_linear_61429:5610)" stroke="black"/>
<path d="M182.929 59.7779L122.452 94.6058V164.253L182.929 199.081L243.405 164.253V94.6058L182.929 59.7779Z" fill="url(#paint41_linear_61429:5610)" stroke="black"/>
<path d="M182.929 128.852L243.405 94.0244V24.3776L182.929 -10.4503L122.453 24.3776V94.0244L182.929 128.852Z" fill="url(#paint42_linear_61429:5610)" stroke="black"/>
<path d="M121.952 94.9087L182.429 129.737V199.383L121.952 234.211L61.4761 199.383L61.4761 129.737L121.952 94.9087Z" fill="url(#paint43_linear_61429:5610)" stroke="black"/>
</g>
<g style="mix-blend-mode:luminosity" opacity="0.4">
<path d="M304.976 199.081L244.5 164.253V94.606L304.976 59.7781L365.452 94.606V164.253L304.976 199.081Z" fill="url(#paint44_linear_61429:5610)" stroke="black"/>
<path d="M304.976 128.852L244.5 94.0244V24.3776L304.976 -10.4503L365.452 24.3776V94.0244L304.976 128.852Z" fill="url(#paint45_linear_61429:5610)" stroke="black"/>
<path d="M365.952 93.7547L426.428 58.9268V-10.7201L365.952 -45.548L305.476 -10.7201V58.9268L365.952 93.7547Z" fill="url(#paint46_linear_61429:5610)" stroke="black"/>
<path d="M426.929 59.7779L366.452 94.6058V164.253L426.929 199.081L487.405 164.253V94.6058L426.929 59.7779Z" fill="url(#paint47_linear_61429:5610)" stroke="black"/>
<path d="M426.928 128.852L487.405 94.0244V24.3776L426.928 -10.4503L366.452 24.3776V94.0244L426.928 128.852Z" fill="url(#paint48_linear_61429:5610)" stroke="black"/>
<path d="M365.952 94.9087L426.428 129.737V199.383L365.952 234.211L305.476 199.383V129.737L365.952 94.9087Z" fill="url(#paint49_linear_61429:5610)" stroke="black"/>
</g>
</g>
<defs>
<linearGradient id="paint0_linear_61429:5610" x1="305" y1="0" x2="305" y2="820" gradientUnits="userSpaceOnUse">
<stop stop-color="#FF008E"/>
<stop offset="1" stop-color="#FFCD1E"/>
</linearGradient>
<linearGradient id="paint1_linear_61429:5610" x1="305" y1="0" x2="305" y2="820" gradientUnits="userSpaceOnUse">
<stop stop-color="#FF008E"/>
<stop offset="1" stop-color="#FFCD1E"/>
</linearGradient>
<linearGradient id="paint2_linear_61429:5610" x1="60.9764" y1="406.873" x2="0.231895" y2="303.246" gradientUnits="userSpaceOnUse">
<stop stop-color="#8257E5"/>
<stop offset="1" stop-color="#FF008E" stop-opacity="0"/>
</linearGradient>
<linearGradient id="paint3_linear_61429:5610" x1="60.9764" y1="336.644" x2="0.231885" y2="233.017" gradientUnits="userSpaceOnUse">
<stop stop-color="#8257E5"/>
<stop offset="1" stop-color="#FF008E" stop-opacity="0"/>
</linearGradient>
<linearGradient id="paint4_linear_61429:5610" x1="60.9761" y1="195.489" x2="182.762" y2="268.955" gradientUnits="userSpaceOnUse">
<stop stop-color="#FF008E" stop-opacity="0"/>
<stop offset="1" stop-color="#FFCD1E"/>
</linearGradient>
<linearGradient id="paint5_linear_61429:5610" x1="243.905" y1="378.933" x2="122.118" y2="305.467" gradientUnits="userSpaceOnUse">
<stop stop-color="#FF008E" stop-opacity="0"/>
<stop offset="1" stop-color="#FFCD1E"/>
</linearGradient>
<linearGradient id="paint6_linear_61429:5610" x1="182.929" y1="336.644" x2="243.673" y2="233.017" gradientUnits="userSpaceOnUse">
<stop stop-color="#8257E5"/>
<stop offset="1" stop-color="#FF008E" stop-opacity="0"/>
</linearGradient>
<linearGradient id="paint7_linear_61429:5610" x1="121.952" y1="308.006" x2="182.697" y2="411.633" gradientUnits="userSpaceOnUse">
<stop stop-color="#8257E5"/>
<stop offset="1" stop-color="#FF008E" stop-opacity="0"/>
</linearGradient>
<linearGradient id="paint8_linear_61429:5610" x1="304.976" y1="406.872" x2="244.231" y2="303.246" gradientUnits="userSpaceOnUse">
<stop stop-color="#8257E5"/>
<stop offset="1" stop-color="#FF008E" stop-opacity="0"/>
</linearGradient>
<linearGradient id="paint9_linear_61429:5610" x1="304.976" y1="336.644" x2="244.231" y2="233.017" gradientUnits="userSpaceOnUse">
<stop stop-color="#8257E5"/>
<stop offset="1" stop-color="#FF008E" stop-opacity="0"/>
</linearGradient>
<linearGradient id="paint10_linear_61429:5610" x1="304.976" y1="195.489" x2="426.762" y2="268.955" gradientUnits="userSpaceOnUse">
<stop stop-color="#FF008E" stop-opacity="0"/>
<stop offset="1" stop-color="#FFCD1E"/>
</linearGradient>
<linearGradient id="paint11_linear_61429:5610" x1="487.905" y1="378.933" x2="366.118" y2="305.467" gradientUnits="userSpaceOnUse">
<stop stop-color="#FF008E" stop-opacity="0"/>
<stop offset="1" stop-color="#FFCD1E"/>
</linearGradient>
<linearGradient id="paint12_linear_61429:5610" x1="426.928" y1="336.644" x2="487.673" y2="233.017" gradientUnits="userSpaceOnUse">
<stop stop-color="#8257E5"/>
<stop offset="1" stop-color="#FF008E" stop-opacity="0"/>
</linearGradient>
<linearGradient id="paint13_linear_61429:5610" x1="365.952" y1="308.006" x2="426.696" y2="411.633" gradientUnits="userSpaceOnUse">
<stop stop-color="#8257E5"/>
<stop offset="1" stop-color="#FF008E" stop-opacity="0"/>
</linearGradient>
<linearGradient id="paint14_linear_61429:5610" x1="60.9764" y1="617.317" x2="0.231895" y2="513.69" gradientUnits="userSpaceOnUse">
<stop stop-color="#8257E5"/>
<stop offset="1" stop-color="#FF008E" stop-opacity="0"/>
</linearGradient>
<linearGradient id="paint15_linear_61429:5610" x1="60.9764" y1="547.089" x2="0.231885" y2="443.462" gradientUnits="userSpaceOnUse">
<stop stop-color="#8257E5"/>
<stop offset="1" stop-color="#FF008E" stop-opacity="0"/>
</linearGradient>
<linearGradient id="paint16_linear_61429:5610" x1="60.9761" y1="405.933" x2="182.762" y2="479.4" gradientUnits="userSpaceOnUse">
<stop stop-color="#FF008E" stop-opacity="0"/>
<stop offset="1" stop-color="#FFCD1E"/>
</linearGradient>
<linearGradient id="paint17_linear_61429:5610" x1="243.905" y1="589.378" x2="122.118" y2="515.911" gradientUnits="userSpaceOnUse">
<stop stop-color="#FF008E" stop-opacity="0"/>
<stop offset="1" stop-color="#FFCD1E"/>
</linearGradient>
<linearGradient id="paint18_linear_61429:5610" x1="182.929" y1="547.089" x2="243.673" y2="443.462" gradientUnits="userSpaceOnUse">
<stop stop-color="#8257E5"/>
<stop offset="1" stop-color="#FF008E" stop-opacity="0"/>
</linearGradient>
<linearGradient id="paint19_linear_61429:5610" x1="121.952" y1="518.451" x2="182.697" y2="622.077" gradientUnits="userSpaceOnUse">
<stop stop-color="#8257E5"/>
<stop offset="1" stop-color="#FF008E" stop-opacity="0"/>
</linearGradient>
<linearGradient id="paint20_linear_61429:5610" x1="304.976" y1="617.317" x2="244.231" y2="513.69" gradientUnits="userSpaceOnUse">
<stop stop-color="#8257E5"/>
<stop offset="1" stop-color="#FF008E" stop-opacity="0"/>
</linearGradient>
<linearGradient id="paint21_linear_61429:5610" x1="304.976" y1="547.089" x2="244.231" y2="443.462" gradientUnits="userSpaceOnUse">
<stop stop-color="#8257E5"/>
<stop offset="1" stop-color="#FF008E" stop-opacity="0"/>
</linearGradient>
<linearGradient id="paint22_linear_61429:5610" x1="304.976" y1="405.933" x2="426.762" y2="479.4" gradientUnits="userSpaceOnUse">
<stop stop-color="#FF008E" stop-opacity="0"/>
<stop offset="1" stop-color="#FFCD1E"/>
</linearGradient>
<linearGradient id="paint23_linear_61429:5610" x1="487.905" y1="589.378" x2="366.118" y2="515.911" gradientUnits="userSpaceOnUse">
<stop stop-color="#FF008E" stop-opacity="0"/>
<stop offset="1" stop-color="#FFCD1E"/>
</linearGradient>
<linearGradient id="paint24_linear_61429:5610" x1="426.928" y1="547.089" x2="487.673" y2="443.462" gradientUnits="userSpaceOnUse">
<stop stop-color="#8257E5"/>
<stop offset="1" stop-color="#FF008E" stop-opacity="0"/>
</linearGradient>
<linearGradient id="paint25_linear_61429:5610" x1="365.952" y1="518.451" x2="426.696" y2="622.078" gradientUnits="userSpaceOnUse">
<stop stop-color="#8257E5"/>
<stop offset="1" stop-color="#FF008E" stop-opacity="0"/>
</linearGradient>
<linearGradient id="paint26_linear_61429:5610" x1="60.9764" y1="827.762" x2="0.231895" y2="724.135" gradientUnits="userSpaceOnUse">
<stop stop-color="#8257E5"/>
<stop offset="1" stop-color="#FF008E" stop-opacity="0"/>
</linearGradient>
<linearGradient id="paint27_linear_61429:5610" x1="60.9764" y1="757.533" x2="0.231885" y2="653.906" gradientUnits="userSpaceOnUse">
<stop stop-color="#8257E5"/>
<stop offset="1" stop-color="#FF008E" stop-opacity="0"/>
</linearGradient>
<linearGradient id="paint28_linear_61429:5610" x1="60.9761" y1="616.378" x2="182.762" y2="689.844" gradientUnits="userSpaceOnUse">
<stop stop-color="#FF008E" stop-opacity="0"/>
<stop offset="1" stop-color="#FFCD1E"/>
</linearGradient>
<linearGradient id="paint29_linear_61429:5610" x1="243.905" y1="799.822" x2="122.118" y2="726.356" gradientUnits="userSpaceOnUse">
<stop stop-color="#FF008E" stop-opacity="0"/>
<stop offset="1" stop-color="#FFCD1E"/>
</linearGradient>
<linearGradient id="paint30_linear_61429:5610" x1="182.929" y1="757.533" x2="243.673" y2="653.906" gradientUnits="userSpaceOnUse">
<stop stop-color="#8257E5"/>
<stop offset="1" stop-color="#FF008E" stop-opacity="0"/>
</linearGradient>
<linearGradient id="paint31_linear_61429:5610" x1="121.952" y1="728.895" x2="182.697" y2="832.522" gradientUnits="userSpaceOnUse">
<stop stop-color="#8257E5"/>
<stop offset="1" stop-color="#FF008E" stop-opacity="0"/>
</linearGradient>
<linearGradient id="paint32_linear_61429:5610" x1="304.976" y1="827.762" x2="244.231" y2="724.135" gradientUnits="userSpaceOnUse">
<stop stop-color="#8257E5"/>
<stop offset="1" stop-color="#FF008E" stop-opacity="0"/>
</linearGradient>
<linearGradient id="paint33_linear_61429:5610" x1="304.976" y1="757.533" x2="244.231" y2="653.906" gradientUnits="userSpaceOnUse">
<stop stop-color="#8257E5"/>
<stop offset="1" stop-color="#FF008E" stop-opacity="0"/>
</linearGradient>
<linearGradient id="paint34_linear_61429:5610" x1="304.976" y1="616.378" x2="426.762" y2="689.844" gradientUnits="userSpaceOnUse">
<stop stop-color="#FF008E" stop-opacity="0"/>
<stop offset="1" stop-color="#FFCD1E"/>
</linearGradient>
<linearGradient id="paint35_linear_61429:5610" x1="487.905" y1="799.822" x2="366.118" y2="726.356" gradientUnits="userSpaceOnUse">
<stop stop-color="#FF008E" stop-opacity="0"/>
<stop offset="1" stop-color="#FFCD1E"/>
</linearGradient>
<linearGradient id="paint36_linear_61429:5610" x1="426.928" y1="757.533" x2="487.673" y2="653.906" gradientUnits="userSpaceOnUse">
<stop stop-color="#8257E5"/>
<stop offset="1" stop-color="#FF008E" stop-opacity="0"/>
</linearGradient>
<linearGradient id="paint37_linear_61429:5610" x1="365.952" y1="728.895" x2="426.696" y2="832.522" gradientUnits="userSpaceOnUse">
<stop stop-color="#8257E5"/>
<stop offset="1" stop-color="#FF008E" stop-opacity="0"/>
</linearGradient>
<linearGradient id="paint38_linear_61429:5610" x1="60.9764" y1="196.428" x2="0.231895" y2="92.8011" gradientUnits="userSpaceOnUse">
<stop stop-color="#8257E5"/>
<stop offset="1" stop-color="#FF008E" stop-opacity="0"/>
</linearGradient>
<linearGradient id="paint39_linear_61429:5610" x1="60.9764" y1="126.2" x2="0.231885" y2="22.5727" gradientUnits="userSpaceOnUse">
<stop stop-color="#8257E5"/>
<stop offset="1" stop-color="#FF008E" stop-opacity="0"/>
</linearGradient>
<linearGradient id="paint40_linear_61429:5610" x1="60.9761" y1="-14.9558" x2="182.762" y2="58.5105" gradientUnits="userSpaceOnUse">
<stop stop-color="#FF008E" stop-opacity="0"/>
<stop offset="1" stop-color="#FFCD1E"/>
</linearGradient>
<linearGradient id="paint41_linear_61429:5610" x1="243.905" y1="168.488" x2="122.118" y2="95.0221" gradientUnits="userSpaceOnUse">
<stop stop-color="#FF008E" stop-opacity="0"/>
<stop offset="1" stop-color="#FFCD1E"/>
</linearGradient>
<linearGradient id="paint42_linear_61429:5610" x1="182.929" y1="126.2" x2="243.673" y2="22.5727" gradientUnits="userSpaceOnUse">
<stop stop-color="#8257E5"/>
<stop offset="1" stop-color="#FF008E" stop-opacity="0"/>
</linearGradient>
<linearGradient id="paint43_linear_61429:5610" x1="121.952" y1="97.5614" x2="182.697" y2="201.188" gradientUnits="userSpaceOnUse">
<stop stop-color="#8257E5"/>
<stop offset="1" stop-color="#FF008E" stop-opacity="0"/>
</linearGradient>
<linearGradient id="paint44_linear_61429:5610" x1="304.976" y1="196.428" x2="244.231" y2="92.8011" gradientUnits="userSpaceOnUse">
<stop stop-color="#8257E5"/>
<stop offset="1" stop-color="#FF008E" stop-opacity="0"/>
</linearGradient>
<linearGradient id="paint45_linear_61429:5610" x1="304.976" y1="126.2" x2="244.231" y2="22.5727" gradientUnits="userSpaceOnUse">
<stop stop-color="#8257E5"/>
<stop offset="1" stop-color="#FF008E" stop-opacity="0"/>
</linearGradient>
<linearGradient id="paint46_linear_61429:5610" x1="304.976" y1="-14.9558" x2="426.762" y2="58.5105" gradientUnits="userSpaceOnUse">
<stop stop-color="#FF008E" stop-opacity="0"/>
<stop offset="1" stop-color="#FFCD1E"/>
</linearGradient>
<linearGradient id="paint47_linear_61429:5610" x1="487.905" y1="168.488" x2="366.118" y2="95.0221" gradientUnits="userSpaceOnUse">
<stop stop-color="#FF008E" stop-opacity="0"/>
<stop offset="1" stop-color="#FFCD1E"/>
</linearGradient>
<linearGradient id="paint48_linear_61429:5610" x1="426.928" y1="126.2" x2="487.673" y2="22.5727" gradientUnits="userSpaceOnUse">
<stop stop-color="#8257E5"/>
<stop offset="1" stop-color="#FF008E" stop-opacity="0"/>
</linearGradient>
<linearGradient id="paint49_linear_61429:5610" x1="365.952" y1="97.5614" x2="426.696" y2="201.188" gradientUnits="userSpaceOnUse">
<stop stop-color="#8257E5"/>
<stop offset="1" stop-color="#FF008E" stop-opacity="0"/>
</linearGradient>
</defs>
</svg>
